<svg xmlns="http://www.w3.org/2000/svg" width="19.261" height="20" viewBox="0 0 19.261 20"><defs><style>.a{fill:#fff;}</style></defs><g transform="translate(-9.46)"><path class="a" d="M28.688,15.913a.943.943,0,0,0-.942-.942h-.595A6.468,6.468,0,0,0,23.627,4.425l1.763-1.647a.6.6,0,0,0,.113-.739L24.523.306A.607.607,0,0,0,24,0H20.5a.605.605,0,0,0-.526.306L19,2.039a.6.6,0,0,0,.113.739l1.764,1.647a6.447,6.447,0,0,0-1.787.677A6.467,6.467,0,0,0,9.46,10.747a6.5,6.5,0,0,0,1.57,4.223h-.595a.943.943,0,0,0-.942.942A4.092,4.092,0,0,0,13.581,20H24.6a4.092,4.092,0,0,0,4.087-4.087ZM22.544,4.284V2.69h2.083L22.893,4.309q-.173-.017-.349-.025ZM20.991.586h2.54L22.253,1.964ZM24.867,2.1H22.923L24.13.8ZM20.381.787,21.586,2.1H19.635Zm-.506,1.9h2.083V4.285c-.117.005-.233.013-.349.025Zm2.376,2.173a5.883,5.883,0,0,1,4.1,10.107H25.005a5.033,5.033,0,0,0,2.263-3.731.293.293,0,1,0-.583-.057,4.449,4.449,0,0,1-3.015,3.788H20.831a6.463,6.463,0,0,0,0-8.445,4.459,4.459,0,0,1,5.8,3.374.293.293,0,1,0,.575-.111,5.044,5.044,0,0,0-6.813-3.726,6.518,6.518,0,0,0-.727-.6,5.882,5.882,0,0,1,2.59-.6Zm-4.1,10.107a5.875,5.875,0,0,1-.233-8.207,4.467,4.467,0,0,1,.727.458,5.042,5.042,0,0,0,.846,7.749Zm-3.644,0A4.455,4.455,0,1,1,17.35,6.524a6.466,6.466,0,0,0,0,8.446Zm4.577-1.082a4.459,4.459,0,0,1,0-6.279,4.45,4.45,0,0,1,0,6.279Zm-9.042-3.142a5.884,5.884,0,1,1,10.212,3.985,4.442,4.442,0,0,1-.729-.456,5.039,5.039,0,1,0-6.354.694h-1.34a5.906,5.906,0,0,1-1.788-4.223ZM24.6,19.414H13.581a3.507,3.507,0,0,1-3.314-2.37h1.221a.293.293,0,0,0,0-.586H10.122a3.513,3.513,0,0,1-.043-.545.357.357,0,0,1,.356-.356h17.31a.357.357,0,0,1,.356.356,3.513,3.513,0,0,1-.043.545h-15.2a.293.293,0,0,0,0,.586H27.914A3.507,3.507,0,0,1,24.6,19.414Z"/></g></svg>