<svg xmlns="http://www.w3.org/2000/svg" width="20.002" height="20" viewBox="0 0 20.002 20"><defs><style>.a{fill:#fff;}</style></defs><g transform="translate(-0.001 -0.022)"><path class="a" d="M204.916,184.5l-.49.245.3.606.865-.433v-1.626l1.016-.2v1.071l-.49.245.3.606.865-.433v-2.316l-2.371.475Zm0,0" transform="translate(-195.93 -174.672)"/><path class="a" d="M19.667,18.022h-.333V10.355A.333.333,0,0,0,19,10.022h-.333V3.689H19a.333.333,0,0,0,.3-.184l.667-1.333a.333.333,0,0,0-.3-.482h-6.9L10.177.073a.333.333,0,0,0-.353,0L7.239,1.689H.334a.333.333,0,0,0-.3.482L.7,3.5a.334.334,0,0,0,.3.184h.333v6.333H1a.333.333,0,0,0-.333.333v7.667H.334A.333.333,0,0,0,0,18.355v1.333a.333.333,0,0,0,.333.333H19.667A.333.333,0,0,0,20,19.689V18.355a.333.333,0,0,0-.333-.333Zm-7.667,0v-6.77a3.018,3.018,0,0,0,.493-.563h.174v7.333Zm-4.667,0V10.689h.174A3.018,3.018,0,0,0,8,11.252v6.77Zm-2.529,0,1.1-1.1-.471-.471-1.1,1.1V12.689H6.2l-1.1,1.1.471.471,1.1-1.1v1.057L5.432,15.453l.471.471.764-.764v2.862Zm-2.04-1.9L1.334,17.551V12.689H3.2l-1.1,1.1.471.471,1.1-1.1v4.862H1.805l1.431-1.431Zm1-8.333L2,9.551v-3.2H6.529L5.1,7.786l.471.471L7,6.827v3.2H2.472L4.236,8.258ZM13,6.827l1.431,1.431.471-.471L13.472,6.355H18v3.2L16.236,7.786l-.471.471,1.764,1.764H13Zm5.667,3.862v1.333H16.334V10.689Zm-5.333,0h2.333v1.333H13.334ZM10,11.355a2.333,2.333,0,1,1,2.333-2.333A2.333,2.333,0,0,1,10,11.355Zm-3.333-.667v1.333H4.334V10.689Zm2,1.017a2.966,2.966,0,0,0,2.667,0v6.317H8.667Zm4.667,3.455.764.764.471-.471-1.236-1.236V13.16l1.1,1.1.471-.471-1.1-1.1h1.862v4.862l-1.1-1.1-.471.471,1.1,1.1H13.334Zm3-2,1.1,1.1.471-.471-1.1-1.1h1.862v4.862L17.236,16.12l-.471.471L18.2,18.022H16.334ZM18,5.689H13v-2h5Zm.794-2.667H13V2.355h6.127ZM10,.749l2.333,1.458V7.14a2.993,2.993,0,0,0-4.667,0V2.207ZM.873,2.355H7v.667H1.207ZM7,3.689v2H2v-2Zm-5.667,7H3.667v1.333H1.334Zm18,8.667H.667v-.667H19.334Zm0,0" transform="translate(0 0)"/><path class="a" d="M42.348,355.048l.677-.677.479.479-.677.677Zm0,0" transform="translate(-40.554 -339.599)"/><path class="a" d="M98.348,203.048l.677-.677.479.479-.677.677Zm0,0" transform="translate(-94.253 -193.926)"/><path class="a" d="M410.348,354.85l.479-.479.677.677-.479.479Zm0,0" transform="translate(-393.297 -339.599)"/><path class="a" d="M354.352,202.846l.479-.479.677.677-.479.479Zm0,0" transform="translate(-339.601 -193.923)"/><path class="a" d="M200,120.023h.677v.677H200Zm0,0" transform="translate(-191.675 -115.004)"/><path class="a" d="M200,88.023h.677V88.7H200Zm0,0" transform="translate(-191.675 -84.337)"/><path class="a" d="M200,56.023h.677V56.7H200Zm0,0" transform="translate(-191.675 -53.63)"/><path class="a" d="M264,120.023h.677v.677H264Zm0,0" transform="translate(-253.009 -115.004)"/><path class="a" d="M264,88.023h.677V88.7H264Zm0,0" transform="translate(-253.009 -84.337)"/><path class="a" d="M264,56.023h.677V56.7H264Zm0,0" transform="translate(-253.009 -53.63)"/><path class="a" d="M232,32.023h.677V32.7H232Zm0,0" transform="translate(-222.342 -30.646)"/></g></svg>