<svg xmlns="http://www.w3.org/2000/svg" width="20.254" height="20" viewBox="0 0 20.254 20"><defs><style>.a{fill:#fff;}</style></defs><g transform="translate(0 -3.216)"><g transform="translate(0 3.373)"><path class="a" d="M18.291,24.943v-6H16.166V14.1H14.377V10.864h-.635v-.112a1.49,1.49,0,0,0,.228-.117,1.1,1.1,0,0,0,.518-.726,2.174,2.174,0,0,0-.479-1.542,5.989,5.989,0,0,0-.577-.668l-.512-.532-.006.739a1.64,1.64,0,0,1-.268.8l-.019.037a1.953,1.953,0,0,0-.255.887A1.088,1.088,0,0,0,13,10.686l.006,0c.043.019.088.039.134.057v.118h-.635V14.1H11.063V10.864h-.635v-.112a1.492,1.492,0,0,0,.228-.117,1.1,1.1,0,0,0,.518-.726A2.174,2.174,0,0,0,10.7,8.367a5.989,5.989,0,0,0-.576-.668l-.512-.533L9.6,7.9a1.64,1.64,0,0,1-.268.8l-.019.037a1.953,1.953,0,0,0-.255.887,1.088,1.088,0,0,0,.628,1.055l.006,0c.043.019.088.039.134.057v.118H9.192V14.1H7.749V10.864H7.114v-.112a1.492,1.492,0,0,0,.228-.117,1.1,1.1,0,0,0,.518-.726,2.173,2.173,0,0,0-.479-1.542A5.991,5.991,0,0,0,6.8,7.7l-.512-.532L6.287,7.9a1.639,1.639,0,0,1-.269.8L6,8.745a1.954,1.954,0,0,0-.255.887,1.088,1.088,0,0,0,.628,1.055l.006,0c.043.019.088.039.134.057v.118H5.878V14.1H4.088v4.838H1.963v6H0v2.066H20.254V24.943Zm-5.318-15.3a1.374,1.374,0,0,1,.185-.615l.019-.036a4.208,4.208,0,0,0,.213-.442c.045.055.088.111.129.168A1.574,1.574,0,0,1,13.9,9.792a.459.459,0,0,1-.156.266V9.665h-.6v.405A.556.556,0,0,1,12.973,9.642Zm.134,1.823h.668V14.1h-.668ZM9.659,9.642a1.375,1.375,0,0,1,.185-.615l.019-.036a4.208,4.208,0,0,0,.213-.442c.045.055.088.111.129.168a1.574,1.574,0,0,1,.378,1.075.459.459,0,0,1-.156.266V9.665h-.6v.405A.556.556,0,0,1,9.659,9.642Zm.134,1.823h.668V14.1H9.793V11.465ZM6.345,9.642a1.375,1.375,0,0,1,.185-.615L6.55,8.99a4.217,4.217,0,0,0,.213-.442c.045.055.088.111.129.168A1.574,1.574,0,0,1,7.27,9.792a.46.46,0,0,1-.156.266V9.665h-.6v.405A.556.556,0,0,1,6.345,9.642Zm.134,1.823h.668V14.1H6.479ZM4.69,14.7H15.565v1.651a1.151,1.151,0,0,0-.72-.234,1.3,1.3,0,0,0-1,.491.681.681,0,0,1-1.143,0,1.266,1.266,0,0,0-2,0,.681.681,0,0,1-1.143,0,1.265,1.265,0,0,0-2,0,.681.681,0,0,1-1.143,0,1.3,1.3,0,0,0-1-.491,1.15,1.15,0,0,0-.719.234V14.7Zm10.875,2.475v1.762H4.69V17.176c.053-.049.1-.1.148-.145a.681.681,0,0,1,1.143,0,1.266,1.266,0,0,0,2,0,.681.681,0,0,1,1.143,0,1.266,1.266,0,0,0,2,0,.681.681,0,0,1,1.143,0,1.266,1.266,0,0,0,2,0,.681.681,0,0,1,1.143,0C15.463,17.078,15.512,17.128,15.565,17.177Zm-13,2.364H17.69v1.723a1.432,1.432,0,0,0-.7.456.681.681,0,0,1-1.143,0,1.266,1.266,0,0,0-2,0,.681.681,0,0,1-1.143,0,1.266,1.266,0,0,0-2,0,.681.681,0,0,1-1.143,0,1.265,1.265,0,0,0-2,0,.681.681,0,0,1-1.143,0,1.266,1.266,0,0,0-2,0,.729.729,0,0,1-.572.311.729.729,0,0,1-.572-.311,1.432,1.432,0,0,0-.7-.456V19.54Zm0,2.365a1.376,1.376,0,0,1,.271.235,1.266,1.266,0,0,0,2,0,.681.681,0,0,1,1.143,0,1.266,1.266,0,0,0,2,0,.681.681,0,0,1,1.143,0,1.266,1.266,0,0,0,2,0,.681.681,0,0,1,1.143,0,1.266,1.266,0,0,0,2,0,.681.681,0,0,1,1.143,0,1.266,1.266,0,0,0,2,0,1.375,1.375,0,0,1,.271-.235v3.038H2.565Zm17.088,4.5H.6v-.863H19.653v.863Z" transform="translate(0 -7.166)"/></g><g transform="translate(11.396 13.941)"><rect class="a" width="2.365" height="0.604"/></g><g transform="translate(14.294 13.941)"><rect class="a" width="0.628" height="0.604"/></g><g transform="translate(10.572 19.936)"><rect class="a" width="5.189" height="0.604"/></g><g transform="translate(16.279 19.936)"><rect class="a" width="0.628" height="0.604"/></g><g transform="translate(15.977 16.593)"><rect class="a" width="0.628" height="0.604"/></g><g transform="translate(12.855 16.1)"><rect class="a" width="0.628" height="0.604"/></g><g transform="translate(10.126 16.593)"><rect class="a" width="0.628" height="0.604"/></g><g transform="translate(6.395 11.665)"><rect class="a" width="0.628" height="0.604"/></g><g transform="translate(8.866 11.125)"><rect class="a" width="0.628" height="0.604"/></g><g transform="translate(10.978 11.36)"><rect class="a" width="0.628" height="0.604"/></g><g transform="translate(13.444 11.454)"><rect class="a" width="0.628" height="0.604"/></g><g transform="translate(16.19 6.642)"><rect class="a" width="0.628" height="0.604"/></g><g transform="translate(4.389 3.993)"><rect class="a" width="0.628" height="0.604"/></g><g transform="translate(16.98 4.228)"><rect class="a" width="0.628" height="0.604"/></g><g transform="translate(17.827 5.9)"><rect class="a" width="0.628" height="0.604"/></g><g transform="translate(3.223 5.688)"><rect class="a" width="0.628" height="0.604"/></g><g transform="translate(1.551 4.417)"><rect class="a" width="0.628" height="0.604"/></g><g transform="translate(3.838 7.44)"><rect class="a" width="0.628" height="0.604"/></g><g transform="translate(15.551 3.216)"><rect class="a" width="0.628" height="0.604"/></g><g transform="translate(6.821 16.1)"><rect class="a" width="0.628" height="0.604"/></g><g transform="translate(3.763 16.593)"><rect class="a" width="0.628" height="0.604"/></g></g></svg>