<svg xmlns="http://www.w3.org/2000/svg" width="44.999" height="53.18" viewBox="0 0 44.999 53.18"><defs><style>.a{fill:#fff;}</style></defs><g transform="translate(0 0)"><path class="a" d="M45.836,179.141a3.175,3.175,0,0,0-2.333.959,3.138,3.138,0,0,0-.959,2.3v13.742a3.273,3.273,0,0,0,3.292,3.292,3.126,3.126,0,0,0,2.318-.959,3.2,3.2,0,0,0,.943-2.333V182.4a3.273,3.273,0,0,0-3.26-3.26Z" transform="translate(-42.544 -161.915)"/><path class="a" d="M144.7,4.89,146.972.7a.421.421,0,0,0-.159-.639.443.443,0,0,0-.639.191l-2.3,4.219a16.03,16.03,0,0,0-12.848,0l-2.3-4.219a.443.443,0,0,0-.639-.191.42.42,0,0,0-.159.639l2.269,4.186A14.013,14.013,0,0,0,124.7,9.8a12.391,12.391,0,0,0-2.046,6.888h29.562A12.4,12.4,0,0,0,150.168,9.8,14.072,14.072,0,0,0,144.7,4.89Zm-13.119,6.089a1.2,1.2,0,0,1-.879.368,1.144,1.144,0,0,1-.863-.368,1.274,1.274,0,0,1,0-1.757,1.148,1.148,0,0,1,.863-.367,1.242,1.242,0,0,1,.879,2.124Zm13.471,0a1.146,1.146,0,0,1-.863.368,1.246,1.246,0,0,1,0-2.493,1.148,1.148,0,0,1,.863.367,1.274,1.274,0,0,1,0,1.757Z" transform="translate(-114.948 0)"/><path class="a" d="M123.971,206.735a3.49,3.49,0,0,0,3.515,3.515h2.365l.032,7.255a3.176,3.176,0,0,0,.959,2.333,3.138,3.138,0,0,0,2.3.959,3.273,3.273,0,0,0,3.292-3.292v-7.255h4.41v7.255a3.291,3.291,0,1,0,6.583,0v-7.255h2.4a3.49,3.49,0,0,0,3.483-3.515V185.45H123.971Z" transform="translate(-116.141 -167.617)"/><path class="a" d="M445.636,179.141a3.168,3.168,0,0,0-2.3.943,3.125,3.125,0,0,0-.959,2.317v13.742a3.174,3.174,0,0,0,.959,2.333,3.139,3.139,0,0,0,2.3.959,3.273,3.273,0,0,0,3.291-3.292V182.4a3.125,3.125,0,0,0-.958-2.317A3.206,3.206,0,0,0,445.636,179.141Z" transform="translate(-403.928 -161.915)"/></g></svg>