<svg xmlns="http://www.w3.org/2000/svg" width="44.265" height="52.875" viewBox="0 0 44.265 52.875"><defs><style>.a{fill:#fff;}</style></defs><g transform="translate(0 0)"><path class="a" d="M277.216,10.041a13.029,13.029,0,0,0,2.956-4.384,12.117,12.117,0,0,0,.922-4.322c0-.084-.005-.191-.016-.318s-.016-.232-.016-.318a3.131,3.131,0,0,1-.079-.35A3.022,3.022,0,0,0,280.9,0q-5.593,1.3-7.944,4.7a14.485,14.485,0,0,0-2.479,8.166,17.832,17.832,0,0,0,3.305-.54A9.011,9.011,0,0,0,277.216,10.041Z" transform="translate(-248.776 0)"/><path class="a" d="M84.018,146.9a12.1,12.1,0,0,1-2.193-7.086,11.313,11.313,0,0,1,2.066-6.578,20.625,20.625,0,0,1,3.623-3.75,16.445,16.445,0,0,0-3.3-3.178,11.631,11.631,0,0,0-6.768-2.066,17.969,17.969,0,0,0-5.5,1.081A15.879,15.879,0,0,1,67.4,126.4a20.468,20.468,0,0,1-4.386-.953,21.143,21.143,0,0,0-5.624-.953,10.968,10.968,0,0,0-9.025,4.577q-3.591,4.64-3.591,11.884,0,7.69,4.672,15.984,4.734,8.23,9.565,8.229a11.5,11.5,0,0,0,4.194-1.08,12.231,12.231,0,0,1,4.512-1.049,14.062,14.062,0,0,1,4.8,1.016,14.668,14.668,0,0,0,4.449,1.016q4.067,0,8.167-6.227a30.663,30.663,0,0,0,3.909-7.944A9.658,9.658,0,0,1,84.018,146.9Z" transform="translate(-44.773 -112.295)"/></g></svg>