<svg xmlns="http://www.w3.org/2000/svg" width="50" height="50" viewBox="0 0 50 50"><defs><style>.a{fill:#1abc9c;}</style></defs><path class="a" d="M224.113,217.3l8.043-4.632-8.043-4.632Zm0,0" transform="translate(-202.18 -187.672)"/><path class="a" d="M25,0A25,25,0,1,0,50,25,25,25,0,0,0,25,0ZM40.621,25.026a41.262,41.262,0,0,1-.643,7.515,3.915,3.915,0,0,1-2.754,2.753c-2.445.644-12.224.644-12.224.644s-9.754,0-12.224-.669a3.915,3.915,0,0,1-2.754-2.754A41.081,41.081,0,0,1,9.378,25a41.234,41.234,0,0,1,.644-7.515,3.994,3.994,0,0,1,2.754-2.779C15.221,14.063,25,14.063,25,14.063s9.779,0,12.224.669a3.915,3.915,0,0,1,2.754,2.754,39.156,39.156,0,0,1,.643,7.54Zm0,0"/></svg>